<?xml version="1.0" encoding="utf-8"?>
<!-- Generator: Adobe Illustrator 17.0.0, SVG Export Plug-In . SVG Version: 6.00 Build 0)  -->
<!DOCTYPE svg PUBLIC "-//W3C//DTD SVG 1.1//EN" "http://www.w3.org/Graphics/SVG/1.1/DTD/svg11.dtd">
<svg version="1.1" id="Layer_1" xmlns="http://www.w3.org/2000/svg" xmlns:xlink="http://www.w3.org/1999/xlink" x="0px" y="0px"
	 width="310px" height="460px" viewBox="15 0 310 460" enable-background="new 15 0 310 460" xml:space="preserve">
<g>
	<path d="M80.166,395.773h-3.991V409.5h-6.921v-33.591h6.921v13.45h3.161l8.213-13.45h8.444l-10.359,15.896L97.077,409.5h-8.26
		L80.166,395.773z"/>
	<path d="M104.639,409.5v-33.591h11.767c4.075,0,7.167,0.781,9.274,2.342s3.161,3.849,3.161,6.864c0,1.646-0.423,3.095-1.269,4.349
		c-0.846,1.254-2.022,2.173-3.53,2.757c1.722,0.431,3.08,1.3,4.072,2.607c0.992,1.308,1.488,2.907,1.488,4.799
		c0,3.23-1.031,5.676-3.091,7.337c-2.062,1.661-4.999,2.507-8.813,2.538h-13.059L104.639,409.5L104.639,409.5z M111.56,389.982
		h5.122c3.491-0.061,5.237-1.454,5.237-4.176c0-1.522-0.442-2.619-1.327-3.288s-2.28-1.003-4.187-1.003h-4.845V389.982z
		 M111.56,394.873v9.067h5.929c1.63,0,2.903-0.388,3.818-1.165c0.915-0.776,1.373-1.849,1.373-3.218
		c0-3.076-1.592-4.638-4.775-4.684H111.56z"/>
	<path d="M157.48,402.578h-12.135l-2.307,6.921h-7.359l12.504-33.591h6.414L167.17,409.5h-7.36L157.48,402.578z M147.213,396.973
		h8.398l-4.222-12.574L147.213,396.973z"/>
	<path d="M202.282,409.5h-6.921v-14.396h-13.497V409.5h-6.921v-33.591h6.921v13.612h13.497v-13.612h6.921V409.5z"/>
	<path d="M237.832,381.515h-10.29V409.5h-6.921v-27.985H210.47v-5.606h27.362V381.515z"/>
	<path d="M261.057,402.578h-12.135l-2.307,6.921h-7.359l12.504-33.591h6.414l12.574,33.591h-7.36L261.057,402.578z M250.791,396.973
		h8.398l-4.222-12.574L250.791,396.973z"/>
</g>
<g>
	<g>
		<g>
			<g>
				<g>
					<g>
						<path fill="#F48C22" d="M210.881,171.652l-6.868-1.342c0,0-0.198,0.978-0.546,2.689c-0.384,1.701-0.944,4.13-1.74,7.003
							c-1.626,5.72-4.234,13.282-8.15,20.016c-1.942,3.362-4.191,6.5-6.593,9.071c-2.397,2.572-4.94,4.575-7.289,5.797
							c-2.341,1.245-4.425,1.825-5.895,2.019c-0.728,0.165-1.316,0.135-1.71,0.184c-0.396,0.031-0.607,0.047-0.607,0.047
							l0.134,6.997c0,0,0.3-0.02,0.862-0.056c0.56-0.057,1.394-0.047,2.423-0.261c2.077-0.284,5.006-1.107,8.095-2.759
							c3.107-1.627,6.258-4.143,9.097-7.186c2.846-3.046,5.387-6.619,7.543-10.351c4.337-7.475,7.094-15.541,8.827-21.621
							c0.847-3.05,1.437-5.615,1.842-7.411C210.672,172.682,210.881,171.652,210.881,171.652z"/>
					</g>
					<g>
						<path fill="#F79F1E" d="M209.615,105.094l-6.812,1.601c0,0,0.959,3.878,1.925,9.803c0.986,5.921,1.785,13.915,1.941,21.943
							c0.149,8.026-0.345,16.047-1.106,22c-0.741,5.957-1.552,9.869-1.552,9.869l6.868,1.342c0,0,0.855-4.122,1.63-10.364
							c0.796-6.24,1.312-14.614,1.155-22.98c-0.102-4.182-0.324-8.361-0.681-12.27c-0.384-3.906-0.823-7.547-1.347-10.648
							C210.626,109.181,209.615,105.094,209.615,105.094z"/>
					</g>
					<g>
						<path fill="#FFC512" d="M168.377,54.143l0.134,6.997c0,0,0.211,0.008,0.608,0.023c0.396,0.033,0.982-0.02,1.717,0.119
							c1.476,0.137,3.58,0.637,5.968,1.791c2.393,1.131,5.01,3.037,7.505,5.516c2.5,2.476,4.867,5.527,6.934,8.814
							c4.17,6.58,7.065,14.039,8.907,19.694c0.905,2.842,1.557,5.247,2.006,6.933c0.412,1.697,0.647,2.667,0.647,2.667l6.812-1.601
							c0,0-0.249-1.021-0.683-2.81c-0.473-1.779-1.162-4.321-2.123-7.337c-1.962-6.011-5.026-13.968-9.644-21.273
							c-2.297-3.648-4.972-7.123-7.933-10.058c-2.952-2.935-6.197-5.328-9.365-6.835c-3.15-1.533-6.108-2.245-8.195-2.448
							c-1.037-0.173-1.871-0.132-2.432-0.167C168.676,54.151,168.377,54.143,168.377,54.143z"/>
					</g>
					<g>
						<path fill="#FFDA06" d="M129.126,106.624l6.868,1.34c0,0,0.198-0.978,0.545-2.689c0.384-1.701,0.943-4.13,1.74-7.003
							c1.624-5.719,4.231-13.281,8.146-20.015c1.941-3.362,4.188-6.5,6.59-9.071c2.397-2.572,4.937-4.576,7.285-5.798
							c2.34-1.247,4.424-1.825,5.892-2.019c0.728-0.164,1.316-0.137,1.71-0.184c0.396-0.03,0.607-0.047,0.607-0.047l-0.134-6.997
							c0,0-0.3,0.02-0.862,0.056c-0.56,0.056-1.394,0.048-2.423,0.261c-2.076,0.284-5.006,1.106-8.094,2.76
							c-3.107,1.627-6.257,4.144-9.093,7.188c-2.845,3.046-5.384,6.62-7.54,10.353c-4.334,7.475-7.091,15.541-8.822,21.62
							c-0.845,3.05-1.437,5.615-1.842,7.41C129.336,105.593,129.126,106.624,129.126,106.624z"/>
					</g>
					<g>
						<path fill="#FFF000" d="M130.393,173.189l6.812-1.601c0,0-0.959-3.878-1.925-9.804c-0.985-5.922-1.783-13.917-1.938-21.945
							c-0.15-8.029,0.344-16.048,1.103-22.004c0.74-5.959,1.55-9.871,1.55-9.871l-6.868-1.34c0,0-0.853,4.122-1.628,10.366
							c-0.406,3.12-0.705,6.775-0.941,10.694c-0.208,3.92-0.271,8.105-0.212,12.288c0.1,4.182,0.323,8.362,0.68,12.271
							c0.384,3.907,0.822,7.548,1.346,10.651C129.383,169.102,130.393,173.189,130.393,173.189z"/>
					</g>
					<g>
						<path fill="#FFF6B2" d="M171.618,224.132l-0.134-6.997c0,0-0.211-0.008-0.608-0.023c-0.396-0.033-0.981,0.018-1.716-0.119
							c-1.475-0.137-3.579-0.637-5.965-1.793c-2.393-1.131-5.009-3.037-7.502-5.514c-2.499-2.476-4.864-5.526-6.932-8.813
							c-4.169-6.579-7.062-14.035-8.903-19.689c-0.905-2.841-1.557-5.246-2.005-6.932c-0.412-1.696-0.647-2.667-0.647-2.667
							l-6.812,1.601c0,0,0.248,1.021,0.683,2.809c0.473,1.779,1.161,4.32,2.122,7.335c1.962,6.009,5.023,13.965,9.64,21.268
							c2.297,3.648,4.97,7.122,7.93,10.057c2.951,2.934,6.194,5.328,9.363,6.835c3.149,1.533,6.107,2.245,8.193,2.449
							c1.037,0.173,1.869,0.132,2.431,0.168C171.317,224.125,171.618,224.132,171.618,224.132z"/>
					</g>
				</g>
			</g>
		</g>
		<g>
			<g>
				<g>
					<g>
						<path fill="#F48C22" d="M218.598,119.995l-4.595,5.277c0,0,0.748,0.66,2.056,1.817c1.282,1.184,3.104,2.883,5.195,5.01
							c4.141,4.268,9.387,10.308,13.26,17.065c1.941,3.362,3.536,6.88,4.558,10.246c1.028,3.362,1.492,6.566,1.376,9.21
							c-0.092,2.65-0.632,4.744-1.2,6.114c-0.221,0.714-0.541,1.208-0.697,1.572c-0.172,0.358-0.263,0.55-0.263,0.55l6.125,3.383
							c0,0,0.133-0.27,0.382-0.775c0.231-0.513,0.657-1.231,0.987-2.229c0.793-1.941,1.546-4.889,1.66-8.389
							c0.146-3.504-0.457-7.492-1.674-11.472c-1.214-3.988-3.039-7.975-5.194-11.709c-4.305-7.493-9.914-13.914-14.313-18.454
							c-2.219-2.258-4.144-4.051-5.497-5.301C219.387,120.69,218.598,119.995,218.598,119.995z"/>
					</g>
					<g>
						<path fill="#F79F1E" d="M160.325,87.81l-2.019,6.7c0,0,3.838,1.11,9.452,3.235c5.621,2.106,12.944,5.413,19.973,9.291
							c7.025,3.885,13.724,8.323,18.501,11.957c4.789,3.62,7.772,6.279,7.772,6.279l4.595-5.277c0,0-3.142-2.801-8.161-6.593
							c-5.006-3.809-12-8.443-19.323-12.49c-3.672-2.004-7.403-3.9-10.967-5.546c-3.575-1.621-6.947-3.061-9.895-4.158
							C164.368,88.979,160.325,87.81,160.325,87.81z"/>
					</g>
					<g>
						<path fill="#FFC512" d="M95.578,98.045l6.127,3.381c0,0,0.113-0.18,0.324-0.515c0.227-0.326,0.474-0.86,0.96-1.426
							c0.856-1.21,2.342-2.783,4.536-4.272c2.177-1.507,5.135-2.822,8.529-3.741c3.395-0.926,7.221-1.45,11.1-1.598
							c7.784-0.32,15.691,0.903,21.509,2.135c2.914,0.637,5.323,1.275,7.009,1.73c1.675,0.492,2.633,0.773,2.633,0.773l2.019-6.7
							c0,0-1.01-0.296-2.775-0.814c-1.778-0.481-4.322-1.155-7.415-1.83c-6.187-1.307-14.61-2.633-23.245-2.286
							c-4.308,0.165-8.655,0.744-12.678,1.839c-4.018,1.089-7.713,2.703-10.603,4.694c-2.902,1.961-4.998,4.167-6.218,5.874
							c-0.668,0.81-1.049,1.555-1.361,2.023C95.734,97.789,95.578,98.045,95.578,98.045z"/>
					</g>
					<g>
						<path fill="#FFDA06" d="M121.401,158.28l4.595-5.277c0,0-0.748-0.66-2.056-1.817c-1.281-1.184-3.104-2.882-5.195-5.009
							c-4.14-4.266-9.386-10.306-13.259-17.063c-1.941-3.362-3.536-6.878-4.559-10.243c-1.028-3.362-1.494-6.564-1.378-9.209
							c0.091-2.65,0.631-4.744,1.197-6.114c0.221-0.714,0.539-1.208,0.696-1.572c0.171-0.358,0.263-0.548,0.263-0.548l-6.127-3.381
							c0,0-0.133,0.27-0.382,0.775c-0.231,0.513-0.655,1.231-0.985,2.229c-0.791,1.941-1.544,4.889-1.654,8.389
							c-0.143,3.504,0.46,7.489,1.678,11.469c1.214,3.986,3.041,7.974,5.194,11.706c4.305,7.492,9.912,13.912,14.311,18.451
							c2.219,2.258,4.144,4.051,5.496,5.301C120.613,157.584,121.401,158.28,121.401,158.28z"/>
					</g>
					<g>
						<path fill="#FFF000" d="M179.684,190.467l2.019-6.7c0,0-3.839-1.109-9.454-3.235c-5.621-2.108-12.946-5.413-19.977-9.292
							c-7.027-3.885-13.727-8.323-18.504-11.959c-4.79-3.622-7.773-6.279-7.773-6.279l-4.595,5.277c0,0,3.143,2.801,8.163,6.594
							c2.499,1.911,5.516,3.998,8.791,6.162c3.291,2.14,6.883,4.288,10.535,6.33c3.672,2.004,7.403,3.9,10.969,5.546
							c3.576,1.621,6.949,3.061,9.897,4.158C175.639,189.298,179.684,190.467,179.684,190.467z"/>
					</g>
					<g>
						<path fill="#FFF6B2" d="M244.415,180.237l-6.127-3.382c0,0-0.113,0.18-0.324,0.515c-0.225,0.326-0.474,0.86-0.96,1.426
							c-0.856,1.209-2.341,2.781-4.535,4.27c-2.176,1.507-5.134,2.819-8.527,3.739c-3.394,0.925-7.218,1.45-11.098,1.597
							c-7.781,0.32-15.687-0.903-21.504-2.135c-2.914-0.637-5.322-1.275-7.006-1.729c-1.675-0.491-2.633-0.773-2.633-0.773
							l-2.019,6.7c0,0,1.008,0.296,2.773,0.814c1.778,0.479,4.321,1.154,7.414,1.829c6.185,1.305,14.606,2.631,23.239,2.286
							c4.307-0.164,8.654-0.743,12.675-1.838c4.016-1.089,7.712-2.702,10.6-4.691c2.902-1.961,4.997-4.167,6.216-5.871
							c0.668-0.812,1.049-1.554,1.36-2.022C244.258,180.493,244.415,180.237,244.415,180.237z"/>
					</g>
				</g>
			</g>
		</g>
		<g>
			<g>
				<g>
					<g>
						<path fill="#F48C22" d="M177.724,87.479l2.273,6.618c0,0,0.946-0.317,2.601-0.872c1.666-0.517,4.049-1.247,6.936-1.994
							c5.766-1.453,13.62-2.975,21.409-2.949c3.883,0,7.725,0.379,11.152,1.175c3.426,0.791,6.431,1.991,8.664,3.413
							c2.25,1.404,3.793,2.919,4.695,4.096c0.507,0.548,0.776,1.072,1.015,1.39c0.224,0.327,0.344,0.503,0.344,0.503l5.992-3.614
							c0,0-0.167-0.25-0.479-0.718c-0.33-0.456-0.737-1.184-1.437-1.968c-1.284-1.657-3.461-3.782-6.437-5.63
							c-2.962-1.878-6.717-3.349-10.772-4.285c-4.061-0.942-8.426-1.356-12.736-1.357c-8.642-0.018-17.007,1.627-23.139,3.167
							c-3.065,0.792-5.581,1.563-7.339,2.11C178.72,87.146,177.724,87.479,177.724,87.479z"/>
					</g>
					<g>
						<path fill="#F79F1E" d="M120.715,121.853l4.791,5.099c0,0,2.88-2.77,7.528-6.568c4.635-3.814,11.16-8.503,18.033-12.651
							c6.877-4.143,14.069-7.725,19.606-10.044c5.53-2.337,9.323-3.592,9.323-3.592l-2.273-6.618c0,0-3.997,1.321-9.791,3.771
							c-2.905,1.208-6.219,2.777-9.73,4.531c-3.499,1.779-7.154,3.817-10.747,5.959c-7.164,4.322-13.977,9.218-18.836,13.215
							C123.749,118.935,120.715,121.853,120.715,121.853z"/>
					</g>
					<g>
						<path fill="#FFC512" d="M97.205,183.041l5.991-3.616c0,0-0.099-0.188-0.284-0.538c-0.169-0.36-0.508-0.84-0.756-1.545
							c-0.62-1.346-1.239-3.42-1.432-6.064c-0.218-2.638,0.124-5.857,1.024-9.257c0.895-3.403,2.354-6.977,4.166-10.412
							c3.614-6.9,8.628-13.136,12.604-17.559c2.009-2.205,3.766-3.972,5.002-5.204c1.264-1.205,1.985-1.894,1.985-1.894
							l-4.791-5.099c0,0-0.761,0.726-2.092,1.996c-1.305,1.3-3.162,3.166-5.293,5.507c-4.225,4.704-9.585,11.335-13.603,18.987
							c-2.011,3.813-3.684,7.868-4.746,11.899c-1.066,4.024-1.515,8.031-1.236,11.529c0.248,3.494,1.111,6.412,1.977,8.322
							c0.367,0.985,0.822,1.686,1.072,2.19C97.062,182.777,97.205,183.041,97.205,183.041z"/>
					</g>
					<g>
						<path fill="#FFDA06" d="M162.281,190.796l-2.272-6.618c0,0-0.946,0.317-2.601,0.872c-1.666,0.517-4.047,1.247-6.936,1.993
							c-5.766,1.453-13.618,2.974-21.406,2.951c-3.882,0-7.724-0.378-11.151-1.174c-3.425-0.791-6.431-1.988-8.664-3.41
							c-2.25-1.403-3.793-2.918-4.696-4.093c-0.507-0.548-0.776-1.071-1.015-1.389c-0.224-0.327-0.344-0.502-0.344-0.502
							l-5.991,3.616c0,0,0.167,0.25,0.479,0.718c0.328,0.456,0.739,1.183,1.438,1.968c1.286,1.656,3.461,3.782,6.438,5.628
							c2.962,1.877,6.717,3.347,10.771,4.282c4.061,0.942,8.425,1.354,12.735,1.355c8.641,0.017,17.004-1.628,23.135-3.167
							c3.064-0.792,5.581-1.562,7.338-2.109C161.284,191.13,162.281,190.796,162.281,190.796z"/>
					</g>
					<g>
						<path fill="#FFF000" d="M219.297,156.417l-4.793-5.099c0,0-2.88,2.77-7.528,6.571c-4.635,3.814-11.16,8.505-18.033,12.654
							c-6.878,4.143-14.072,7.724-19.61,10.043c-5.531,2.337-9.325,3.592-9.325,3.592l2.272,6.618c0,0,3.997-1.321,9.792-3.771
							c2.905-1.208,6.22-2.776,9.732-4.531c3.499-1.779,7.156-3.817,10.75-5.959c3.572-2.179,7.08-4.462,10.286-6.727
							c3.19-2.286,6.125-4.486,8.55-6.493C216.263,159.335,219.297,156.417,219.297,156.417z"/>
					</g>
					<g>
						<path fill="#FFF6B2" d="M242.805,95.243l-5.992,3.614c0,0,0.099,0.188,0.284,0.539c0.169,0.358,0.507,0.84,0.756,1.545
							c0.619,1.346,1.238,3.418,1.43,6.063c0.216,2.638-0.125,5.856-1.025,9.254c-0.895,3.401-2.354,6.976-4.166,10.41
							c-3.614,6.899-8.625,13.134-12.6,17.555c-2.009,2.205-3.765,3.972-5,5.203c-1.264,1.205-1.985,1.894-1.985,1.894l4.793,5.099
							c0,0,0.761-0.726,2.092-1.996c1.304-1.3,3.16-3.166,5.29-5.505c4.223-4.703,9.581-11.332,13.599-18.982
							c2.011-3.812,3.683-7.866,4.746-11.896c1.066-4.023,1.516-8.029,1.239-11.525c-0.246-3.494-1.11-6.411-1.975-8.32
							c-0.367-0.985-0.821-1.686-1.071-2.19C242.949,95.508,242.805,95.243,242.805,95.243z"/>
					</g>
				</g>
			</g>
		</g>
	</g>
	<g>
		<rect x="155.019" y="133.639" fill="#F79F1E" width="29.962" height="6.514"/>
	</g>
	<g>
		
			<rect x="157.239" y="134.34" transform="matrix(-0.5 -0.866 0.866 -0.5 136.0602 353.2691)" fill="#FFF000" width="25.538" height="6.036"/>
	</g>
	<g>
		
			<rect x="166.74" y="124.588" transform="matrix(-0.866 -0.5 0.5 -0.866 248.5371 341.3124)" fill="#FFC50B" width="6.513" height="25.538"/>
	</g>
	<g>
		<polygon fill="#FFFFFF" points="170.188,223.525 130.733,223.525 140.225,273.028 170.188,273.028 199.774,273.028 
			209.267,223.525 		"/>
		<path d="M199.775,275.633h-59.55l-2.559-2.114l-9.493-49.503l2.559-3.096h78.534l2.558,3.096l-9.492,49.503L199.775,275.633z
			 M142.379,270.423h55.243l8.493-44.292h-72.229L142.379,270.423z"/>
	</g>
	<g>
		<polygon fill="#FFFFFF" points="192.146,276.364 188.238,273.028 170,273.028 151.762,273.028 147.854,276.364 147.854,282.153 
			151.762,286.055 147.854,288.879 147.854,294.668 151.762,297.779 147.854,301.394 147.854,307.184 151.762,310.806 170,310.806 
			188.238,310.806 192.146,307.184 192.146,301.394 188.238,297.779 192.146,294.668 192.146,288.879 188.238,286.055 
			192.146,282.153 		"/>
		<path d="M189.259,313.412H150.74l-5.491-5.091v-8.064l2.516-2.328l-2.516-2.004v-8.377l2.507-1.812l-2.507-2.502v-8.072
			l5.553-4.739h38.397l5.553,4.739v8.072l-2.506,2.502l2.506,1.812v8.377l-2.516,2.004l2.516,2.328v8.064L189.259,313.412z
			 M152.784,308.201h34.432l2.324-2.155v-3.512l-5.3-4.903l5.3-4.217v-3.202l-5.31-3.837l5.31-5.301v-3.507l-2.263-1.932h-34.555
			l-2.263,1.932v3.507l5.309,5.301l-5.309,3.837v3.202l5.3,4.217l-5.3,4.903v3.512L152.784,308.201z"/>
	</g>
	<g>
		<polygon fill="#FFFFFF" points="176.513,317.32 176.513,310.806 163.486,310.806 163.486,317.32 166.612,321.228 173.337,321.228 
					"/>
		<path d="M174.577,323.833h-9.218l-4.478-5.6v-10.032h18.238v10.044L174.577,323.833z M167.864,318.623h4.232l1.812-2.228v-2.983
			h-7.816v2.995L167.864,318.623z"/>
	</g>
</g>
</svg>
